<svg width="506" height="242" viewBox="0 0 506 242" fill="none" xmlns="http://www.w3.org/2000/svg">
<rect width="506" height="242" rx="24" fill="#35A323" fill-opacity="0.3"/>
<g clip-path="url(#clip0_493_2546)">
<path d="M202.678 185.955H218.441V180.92H202.678V185.955Z" fill="#EBEBEB"/>
<path d="M164.305 136.293H180.069V131.259H164.305V136.293Z" fill="#EBEBEB"/>
<path d="M211.47 192.303L219.406 192.172L223.329 192.118H227.234L227.027 192.321V187.286L227.252 187.511L219.37 187.484L215.429 187.444L211.488 187.394L211.596 187.286L211.47 192.303ZM211.47 192.303L211.367 187.268V187.165H211.475L215.416 187.115L219.356 187.075L227.238 187.043H227.462V187.268V192.303V192.51H227.261H223.284L219.325 192.456L211.47 192.303Z" fill="#EBEBEB"/>
<path d="M111.406 69.5665L119.342 69.4361L123.265 69.3821L127.17 69.3596L126.968 69.5665V64.532L127.192 64.757L119.31 64.7255L115.37 64.6895L111.429 64.64L111.536 64.532L111.406 69.5665ZM111.406 69.5665L111.303 64.532V64.4285H111.411L115.352 64.379L119.293 64.343L127.174 64.3116H127.398V64.5365V69.571V69.778H127.192L123.215 69.7555L119.257 69.7015L111.406 69.5665Z" fill="#EBEBEB"/>
<path d="M120.203 75.9238L128.138 75.7933L132.057 75.7393H135.962L135.76 75.9463L135.738 70.9118L135.962 71.1367L128.085 71.1052L124.144 71.0692L120.203 71.0198L120.306 70.9118L120.203 75.9238ZM120.203 75.9238L120.095 70.8893V70.7858H120.207L124.148 70.7363L128.089 70.7003L135.966 70.6688H136.195V70.8938V75.9283V76.1353H135.989L132.016 76.1128L128.053 76.0588L120.203 75.9238Z" fill="#EBEBEB"/>
<path d="M128.959 69.5666H144.722V64.532H128.959V69.5666Z" fill="#EBEBEB"/>
<path d="M41.7625 192.303H57.5259V187.268H41.7625V192.303Z" fill="#EBEBEB"/>
<path d="M41.7668 43.1836L49.7023 43.0532L53.6252 42.9992H57.5302L57.324 43.2016V38.1671L57.5481 38.3921L49.6664 38.3606L45.7301 38.3066L41.7892 38.2571L41.8744 38.1311L41.7668 43.1836ZM41.7668 43.1836L41.6592 38.1311V38.0276H41.7668L45.7301 37.9961L49.6709 37.9557L57.5526 37.9242H57.7768V38.1311V43.1657V43.3726H57.575H53.5983L49.6395 43.3186L41.7668 43.1836Z" fill="#EBEBEB"/>
<path d="M45.2324 124.762L109.77 124.762V118.724L45.2324 118.724V124.762Z" fill="#DBDBDB"/>
<path d="M41 211.78L64.3761 211.667L87.7478 211.627L134.5 211.555L181.248 211.627L204.624 211.667L228 211.78L204.624 211.888L181.248 211.928L134.5 212L87.7478 211.928L64.3761 211.888L41 211.78Z" fill="#263238"/>
<path d="M227.722 145.696H170.833V153.799H227.722V145.696Z" fill="#455A64"/>
<path d="M226.368 153.799H172.191V156.431H226.368V153.799Z" fill="#455A64"/>
<path d="M226.368 153.799H172.191V154.672H226.368V153.799Z" fill="#263238"/>
<path d="M172.725 212H170.555L176.863 156.431H182.391L172.725 212Z" fill="#455A64"/>
<path d="M182.391 156.431L181.741 160.152H176.442L176.863 156.431H182.391Z" fill="#263238"/>
<path d="M225.83 212H228L221.692 156.431H216.164L225.83 212Z" fill="#455A64"/>
<path d="M216.164 156.431L216.814 160.152H222.113L221.692 156.431H216.164Z" fill="#263238"/>
<path d="M213.223 178.535C212.785 180.14 212.496 181.782 212.357 183.44C212.402 183.521 212.393 183.822 212.357 183.741C212.357 184.011 211.94 183.961 211.94 183.696C211.94 183.521 211.94 183.35 211.94 183.179C210.985 181.991 209.6 181.239 208.479 180.205C207.577 179.393 206.92 178.344 206.583 177.177C205.655 173.96 206.525 170.554 205.408 167.351C204.444 164.588 202.718 162.186 201.252 159.702C199.71 157.052 198.562 154.272 198.455 151.154C198.365 148.778 198.647 145.611 200.45 143.834C202.36 141.944 204.731 143.361 206.193 145.044C210.434 149.93 212.398 156.103 213.191 162.415C213.64 165.906 214.088 169.425 213.976 172.952C213.911 174.834 213.659 176.704 213.223 178.535Z" fill="#35A223"/>
<path d="M212.38 184.722C212.61 181.425 212.571 178.114 212.263 174.824C212.263 174.824 212.263 174.801 212.263 174.788C212.317 172.111 212.528 169.447 212.424 166.766C212.296 163.87 211.903 160.992 211.25 158.168C211.252 158.164 211.252 158.159 211.252 158.155C211.252 158.15 211.25 158.146 211.248 158.142C211.245 158.139 211.242 158.136 211.238 158.133C211.234 158.131 211.23 158.13 211.225 158.13C211.221 158.13 211.216 158.131 211.212 158.133C211.208 158.136 211.205 158.139 211.203 158.142C211.2 158.146 211.199 158.15 211.198 158.155C211.198 158.159 211.199 158.164 211.201 158.168C211.718 160.944 212.028 163.755 212.129 166.577C212.182 168.076 212.17 169.588 212.093 171.112C212.066 171.602 212.021 172.097 211.985 172.592C210.877 165.081 208.172 157.897 204.054 151.527C204 151.442 203.843 151.527 203.897 151.626C206.845 156.47 209.029 161.742 210.371 167.256C208.331 163.463 205.247 160.345 202.96 156.701C202.96 156.701 202.915 156.701 202.929 156.724C204.982 160.773 208.372 163.981 210.55 167.972C210.923 169.6 211.232 171.247 211.447 172.898C211.752 175.168 211.917 177.455 211.94 179.746C210.698 177.415 209.407 175.188 208.389 172.723C208.363 172.655 208.268 172.7 208.291 172.768C209.156 175.328 210.317 178.086 211.945 180.268C211.945 181.887 211.904 183.512 211.81 185.127C211.559 189.45 210.824 193.711 210.465 198.021C210.462 198.047 210.47 198.074 210.486 198.094C210.503 198.115 210.527 198.128 210.553 198.131C210.579 198.134 210.605 198.127 210.626 198.11C210.646 198.094 210.66 198.07 210.663 198.044C211.533 193.647 212.106 189.196 212.38 184.722Z" fill="#263238"/>
<path d="M207.807 151.397C207.807 151.365 207.744 151.397 207.758 151.419C208.542 153.601 208.991 155.81 209.551 158.046C209.555 158.068 209.567 158.087 209.584 158.1C209.602 158.112 209.624 158.118 209.645 158.114C209.667 158.11 209.686 158.098 209.698 158.081C209.711 158.063 209.716 158.041 209.712 158.019C209.488 155.752 208.681 153.489 207.807 151.397Z" fill="#263238"/>
<path d="M227.776 160.543C227.259 161.824 226.66 163.07 225.982 164.273C224.566 166.851 223.091 169.222 222.844 172.223C222.799 173.567 222.608 174.902 222.275 176.205C221.903 177.317 221.369 178.367 220.692 179.323C219.159 181.572 217.24 183.503 215.814 185.829C214.336 188.258 213.244 190.904 212.577 193.671C212.541 193.819 212.304 193.779 212.34 193.63C212.34 193.63 212.34 193.608 212.34 193.594C212.337 193.589 212.336 193.584 212.336 193.578C212.336 193.573 212.337 193.568 212.34 193.563C212.115 187.12 212.626 180.623 214.581 174.45C215.446 171.735 216.485 169.08 217.693 166.5C218.742 164.251 220.046 162.109 221.889 160.44C223.086 159.36 225.677 157.291 227.381 158.393C228.161 158.915 228.098 159.738 227.776 160.543Z" fill="#35A223"/>
<path d="M221.324 175.152C220.193 177.028 218.947 178.831 217.594 180.551C216.971 181.365 216.338 182.175 215.72 182.99C215.424 183.377 215.097 183.759 214.823 184.173L215.334 182.103C216.164 178.85 216.962 175.566 218.195 172.435C219.459 169.402 220.949 166.47 222.651 163.661C222.696 163.589 222.575 163.535 222.534 163.607C221.189 165.857 219.8 168.079 218.656 170.442C218.028 171.757 217.479 173.11 217.011 174.491C217.534 171.552 218.266 168.654 219.203 165.821C219.203 165.798 219.176 165.78 219.163 165.821C217.94 168.682 217.173 171.719 216.89 174.819C216.612 175.656 216.355 176.5 216.119 177.352C215.105 180.952 214.218 184.6 213.397 188.258C213.382 185.855 213.589 183.456 214.016 181.091C214.013 181.082 214.007 181.074 214 181.069C213.992 181.063 213.983 181.06 213.973 181.06C213.964 181.06 213.955 181.063 213.947 181.069C213.94 181.074 213.934 181.082 213.931 181.091C213.305 183.557 213.096 186.11 213.312 188.645C212.998 190.035 212.698 191.425 212.416 192.82C211.783 195.79 211.008 198.813 210.622 201.818C210.621 201.826 210.621 201.834 210.622 201.842C210.624 201.849 210.627 201.857 210.631 201.863C210.636 201.87 210.641 201.875 210.648 201.879C210.654 201.884 210.662 201.887 210.669 201.888C210.677 201.89 210.685 201.89 210.692 201.888C210.7 201.886 210.707 201.883 210.714 201.879C210.72 201.875 210.726 201.869 210.73 201.863C210.734 201.856 210.737 201.849 210.739 201.841C211.187 200.212 211.447 198.53 211.806 196.892C212.164 195.254 212.541 193.594 212.922 191.943C213.478 189.545 214.065 187.151 214.657 184.744C215.056 183.871 215.827 183.093 216.401 182.36C217.033 181.554 217.665 180.745 218.28 179.926C219.435 178.411 220.469 176.807 221.373 175.13C221.4 175.143 221.342 175.116 221.324 175.152Z" fill="#263238"/>
<path d="M221.598 172.394C220.184 174.205 218.959 176.158 217.944 178.221C217.944 178.243 217.975 178.275 217.989 178.248C219.217 176.313 220.428 174.365 221.656 172.43C221.674 172.399 221.62 172.367 221.598 172.394Z" fill="#263238"/>
<path d="M194.263 166.653C195.097 168.093 196.056 169.803 195.688 171.544C195.46 172.637 194.662 173.523 194.518 174.639C194.195 177.1 196.643 178.729 198.41 179.89C202.821 182.796 208.865 185.383 209.667 191.313C209.699 191.52 210.062 191.47 210.035 191.264C210.037 191.25 210.037 191.236 210.035 191.223C210.035 191.223 210.057 191.223 210.057 191.192C210.635 188.197 210.606 185.117 209.972 182.135C209.318 179.08 207.986 176.331 206.417 173.649C203.763 169.105 200.956 164.453 196.944 160.971C195.832 160.013 193.559 158.271 192.671 160.453C191.783 162.636 193.231 164.899 194.263 166.653Z" fill="#35A223"/>
<path d="M198.298 176.286C201.221 179.462 205.87 181.235 208.385 184.798C206.98 179.384 204.325 174.378 200.633 170.185C200.623 170.174 200.614 170.162 200.609 170.148C200.603 170.134 200.6 170.119 200.6 170.104C200.6 170.089 200.603 170.074 200.609 170.06C200.614 170.046 200.623 170.034 200.633 170.023C200.644 170.013 200.657 170.004 200.67 169.998C200.684 169.993 200.699 169.99 200.714 169.99C200.729 169.99 200.744 169.993 200.758 169.998C200.772 170.004 200.784 170.013 200.795 170.023C203.485 172.647 205.637 175.774 207.13 179.228C206.435 176.816 205.521 174.473 204.399 172.228C204.393 172.211 204.392 172.192 204.398 172.175C204.404 172.157 204.416 172.143 204.432 172.133C204.447 172.124 204.466 172.121 204.484 172.124C204.502 172.127 204.518 172.137 204.529 172.151C205.918 174.604 206.91 177.261 207.471 180.025C210.788 188.078 211.093 197.526 210.398 206.016C210.398 206.138 210.205 206.142 210.21 206.016C210.398 199.326 210.291 192.519 208.695 185.982L208.587 185.577C205.852 181.748 201.225 179.971 198.248 176.335C198.217 176.299 198.266 176.254 198.298 176.286Z" fill="#263238"/>
<path d="M197.621 173.555C199.154 174.968 200.665 176.416 202.203 177.825C202.203 177.825 202.203 177.87 202.18 177.856C200.442 176.68 198.876 175.264 197.531 173.649C197.523 173.637 197.52 173.622 197.521 173.607C197.523 173.592 197.529 173.578 197.54 173.568C197.55 173.557 197.563 173.55 197.578 173.547C197.593 173.545 197.608 173.548 197.621 173.555Z" fill="#263238"/>
<path d="M197.378 167.436C198.736 169.668 200.271 171.787 201.969 173.771C201.992 173.798 201.969 173.838 201.929 173.811C200.024 171.992 198.454 169.849 197.293 167.481C197.29 167.47 197.291 167.459 197.296 167.448C197.3 167.438 197.308 167.43 197.318 167.424C197.328 167.419 197.339 167.417 197.35 167.42C197.361 167.422 197.371 167.428 197.378 167.436Z" fill="#263238"/>
<path d="M204.288 212H217.729L215.917 193.851H206.359L204.288 212Z" fill="#455A64"/>
<path d="M206.018 196.802H216.213L215.917 193.851H206.354L206.018 196.802Z" fill="#263238"/>
<path d="M204.709 194.741H217.307V191.844H204.709V194.741Z" fill="#455A64"/>
<path d="M58.4625 88.2514H56.0415V209.57H58.4625V88.2514Z" fill="#263238"/>
<path d="M98.5359 45.3553L41 103.094L42.7119 104.812L100.248 47.0732L98.5359 45.3553Z" fill="#263238"/>
<path d="M44.125 209.575V212.005H70.3749V209.575H44.125Z" fill="#263238"/>
<path d="M100.494 54.3055L108.609 46.657L100.969 40.4302L94.8896 46.1666L100.494 54.3055Z" fill="#35A223"/>
<path opacity="0.1" d="M108.609 46.657L100.494 54.3055L98.2656 51.0706L105.219 43.899L108.609 46.657Z" fill="black"/>
<path d="M99.6556 67.083L121.552 46.432L111.093 40.7811L94.6836 56.2536L99.6556 67.083Z" fill="#35A223"/>
<path opacity="0.6" d="M185.076 132.415C185.076 132.415 177.298 128.816 177.298 123.997C177.298 119.178 187.385 116.074 187.385 112.299C187.385 108.525 182.987 106.315 182.987 106.315C182.987 106.315 189.936 108.7 189.936 113.465C189.936 118.229 183.283 121.464 182.651 124.514C181.763 128.708 185.076 132.415 185.076 132.415Z" fill="#DBDBDB"/>
<path opacity="0.6" d="M184.713 132.415C184.713 132.415 192.496 129.589 192.496 125.797C192.496 122.004 182.382 119.565 182.382 116.605C182.382 113.645 186.785 111.917 186.785 111.917C186.785 111.917 179.831 113.788 179.831 117.536C179.831 121.284 187.453 123.862 188.018 126.903C188.583 129.945 184.713 132.415 184.713 132.415Z" fill="#DBDBDB"/>
<path d="M188.694 144.54H181.292V145.701H188.694V144.54Z" fill="#35A223"/>
<path opacity="0.1" d="M188.694 144.54H181.292V145.305H188.694V144.54Z" fill="black"/>
<path d="M197.482 141.422C197.032 142.092 196.4 142.618 195.661 142.937C194.922 143.256 194.106 143.355 193.312 143.222C193.057 143.174 192.806 143.102 192.564 143.006C192.195 142.861 191.843 142.675 191.515 142.452L192.456 141.053C192.631 141.177 192.817 141.284 193.012 141.373C193.55 141.622 194.159 141.668 194.728 141.503C195.297 141.338 195.788 140.972 196.11 140.473C197.123 139.042 197.486 135.776 196.46 134.516C196.393 134.426 196.092 134.278 194.9 134.516C194.68 134.565 194.451 134.619 194.151 134.696C193.931 134.77 193.704 134.82 193.474 134.844L193.442 134.003L193.362 133.166C193.438 133.166 193.559 133.117 193.716 133.072C194.266 132.911 194.829 132.794 195.397 132.721C196.294 132.631 197.191 132.721 197.76 133.432C199.428 135.479 198.751 139.631 197.482 141.422Z" fill="#35A223"/>
<path opacity="0.1" d="M192.456 141.044C192.631 141.168 192.817 141.275 193.012 141.364L192.564 142.997C192.195 142.852 191.843 142.666 191.515 142.443L192.456 141.044Z" fill="black"/>
<path opacity="0.1" d="M195.397 132.716L194.9 134.516C194.68 134.565 194.451 134.619 194.151 134.696C193.931 134.77 193.704 134.82 193.474 134.844L193.443 134.003L193.362 133.166C193.438 133.166 193.559 133.117 193.716 133.072C194.266 132.909 194.828 132.791 195.397 132.716Z" fill="black"/>
<path d="M175.15 130.53C175.15 130.53 175.213 131.083 175.339 131.956C175.361 132.086 175.379 132.235 175.401 132.379C175.491 132.977 175.608 133.688 175.738 134.448C175.741 134.493 175.741 134.539 175.738 134.583C175.935 135.677 176.186 136.865 176.451 137.989C176.451 138.039 176.482 138.088 176.491 138.133C176.567 138.435 176.648 138.732 176.729 139.033C176.809 139.335 176.899 139.6 176.984 139.865C177.143 140.355 177.332 140.834 177.549 141.301C179.082 144.486 181.225 144.841 182.552 144.841H187.403C188.748 144.841 190.873 144.486 192.402 141.301L192.541 140.99C192.577 140.914 192.608 140.833 192.64 140.752C192.671 140.671 192.707 140.585 192.739 140.5L192.806 140.32C193.124 139.416 193.389 138.493 193.599 137.557C193.612 137.519 193.622 137.48 193.631 137.44C193.631 137.44 193.631 137.413 193.631 137.395C193.725 137 193.81 136.599 193.891 136.203C194.03 135.555 194.155 134.912 194.258 134.305C194.303 134.026 194.353 133.751 194.397 133.49C194.397 133.414 194.42 133.346 194.433 133.274C194.46 133.099 194.491 132.928 194.514 132.761C194.536 132.595 194.559 132.442 194.581 132.311C194.604 132.181 194.622 132.014 194.644 131.861C194.76 131.056 194.819 130.548 194.819 130.548L175.15 130.53Z" fill="#35A223"/>
<path opacity="0.1" d="M175.747 134.583C175.944 135.677 176.195 136.865 176.459 137.989C176.585 137.989 176.706 138.03 176.827 138.057C177.42 138.196 177.983 138.439 178.49 138.777C178.988 139.122 179.453 139.512 179.88 139.942C180.293 140.366 180.743 140.751 181.225 141.094C181.706 141.415 182.266 141.598 182.844 141.62C183.125 141.612 183.402 141.545 183.657 141.425C183.911 141.304 184.138 141.131 184.323 140.918C184.732 140.49 185.103 140.026 185.431 139.533C185.768 139.029 186.131 138.544 186.52 138.079C186.723 137.846 186.952 137.636 187.202 137.454C187.345 137.368 187.495 137.294 187.65 137.233C187.804 137.18 187.966 137.153 188.13 137.152C188.452 137.146 188.771 137.225 189.053 137.382C189.324 137.534 189.574 137.72 189.797 137.935C190.246 138.349 190.631 138.835 191.03 139.263C191.383 139.726 191.858 140.08 192.402 140.284C192.54 140.313 192.682 140.313 192.819 140.284C193.138 139.38 193.403 138.457 193.613 137.521C193.456 137.481 193.294 137.44 193.137 137.391C192.558 137.192 192.02 136.887 191.55 136.491C191.09 136.1 190.664 135.669 190.277 135.204C189.905 134.743 189.494 134.314 189.049 133.922C188.599 133.555 188.058 133.319 187.484 133.238C187.203 133.221 186.922 133.261 186.657 133.357C186.393 133.453 186.151 133.603 185.946 133.796C185.498 134.179 185.087 134.604 184.718 135.065C184.323 135.515 183.933 135.965 183.489 136.415C183.265 136.629 183.017 136.816 182.75 136.973C182.606 137.046 182.456 137.107 182.301 137.152C182.14 137.189 181.973 137.201 181.808 137.188C181.487 137.158 181.178 137.046 180.911 136.865C180.656 136.687 180.425 136.477 180.225 136.239C179.813 135.789 179.481 135.281 179.123 134.804C178.817 134.308 178.379 133.907 177.858 133.648C177.316 133.454 176.737 133.76 176.285 134.12C176.11 134.287 175.935 134.413 175.747 134.583Z" fill="black"/>
<path d="M175.747 134.448C175.749 134.493 175.749 134.539 175.747 134.583C175.921 134.43 176.096 134.287 176.276 134.134C176.724 133.774 177.307 133.468 177.849 133.661C178.37 133.92 178.808 134.321 179.114 134.817C179.472 135.294 179.804 135.803 180.216 136.253C180.417 136.491 180.647 136.701 180.902 136.878C181.169 137.06 181.478 137.171 181.799 137.202C181.964 137.215 182.131 137.202 182.292 137.166C182.447 137.12 182.597 137.06 182.741 136.986C183.008 136.83 183.256 136.643 183.48 136.428C183.929 136.005 184.314 135.528 184.709 135.078C185.078 134.618 185.489 134.193 185.937 133.81C186.142 133.616 186.384 133.467 186.649 133.371C186.913 133.275 187.194 133.234 187.475 133.252C188.049 133.332 188.59 133.569 189.04 133.936C189.485 134.327 189.896 134.756 190.268 135.218C190.655 135.683 191.081 136.113 191.541 136.505C192.011 136.9 192.549 137.205 193.128 137.404C193.285 137.454 193.447 137.494 193.604 137.535C193.616 137.496 193.627 137.457 193.635 137.418C193.483 137.373 193.326 137.328 193.187 137.269C192.083 136.824 191.133 136.066 190.452 135.087C190.08 134.605 189.663 134.161 189.206 133.76C188.724 133.361 188.142 133.101 187.524 133.009C187.207 132.984 186.889 133.025 186.588 133.128C186.287 133.232 186.011 133.397 185.776 133.612C185.311 134.003 184.884 134.437 184.498 134.907C184.104 135.357 183.727 135.807 183.305 136.235C182.884 136.662 182.382 137.008 181.83 136.941C181.55 136.901 181.281 136.806 181.038 136.661C180.794 136.515 180.582 136.323 180.414 136.095C180.019 135.645 179.678 135.164 179.306 134.687C178.964 134.166 178.483 133.753 177.917 133.495C177.609 133.4 177.278 133.419 176.984 133.549C176.701 133.668 176.438 133.831 176.204 134.03C176.038 134.17 175.89 134.305 175.747 134.448Z" fill="#35A223"/>
<path d="M176.473 138.012C176.473 138.061 176.505 138.111 176.513 138.156L176.805 138.219C177.945 138.558 178.964 139.219 179.742 140.122C180.149 140.567 180.599 140.969 181.087 141.323C181.605 141.674 182.21 141.875 182.835 141.904C183.152 141.9 183.465 141.83 183.754 141.698C184.042 141.566 184.3 141.376 184.512 141.139C184.938 140.703 185.325 140.23 185.668 139.726C185.992 139.227 186.345 138.747 186.727 138.291C187.103 137.841 187.565 137.431 188.116 137.436C188.687 137.467 189.223 137.72 189.609 138.142C190.058 138.538 190.434 138.997 190.851 139.434C191.239 139.92 191.757 140.285 192.344 140.486C192.473 140.511 192.605 140.511 192.734 140.486L192.801 140.306C192.664 140.336 192.522 140.336 192.385 140.306C191.841 140.102 191.365 139.748 191.013 139.285C190.614 138.835 190.233 138.385 189.78 137.958C189.556 137.742 189.306 137.556 189.035 137.404C188.753 137.248 188.434 137.169 188.112 137.175C187.949 137.176 187.787 137.203 187.632 137.256C187.477 137.317 187.327 137.391 187.184 137.476C186.934 137.659 186.705 137.868 186.502 138.102C186.114 138.566 185.75 139.051 185.413 139.555C185.085 140.049 184.714 140.512 184.306 140.941C184.121 141.154 183.894 141.326 183.639 141.447C183.384 141.568 183.108 141.634 182.826 141.643C182.249 141.62 181.688 141.438 181.208 141.116C180.726 140.774 180.276 140.388 179.863 139.964C179.436 139.534 178.971 139.144 178.473 138.799C177.965 138.462 177.402 138.218 176.809 138.079C176.72 138.012 176.599 138.012 176.473 138.012Z" fill="#35A223"/>
<path d="M98.1356 184.078L63.9009 211.78H65.8287L105.367 184.078H98.1356Z" fill="#C7C7C7"/>
<path d="M101.35 184.078L84.4346 211.78H86.3624L107.098 184.078H101.35Z" fill="#C7C7C7"/>
<path d="M109.645 184.078L126.56 211.78H124.632L103.897 184.078H109.645Z" fill="#C7C7C7"/>
<path d="M112.599 184.078L146.829 211.78H144.901L105.367 184.078H112.599Z" fill="#C7C7C7"/>
<path d="M169.73 173.915V165.812L122.722 163.877L97.8935 97.3487H41L61.1302 173.915L109.223 187.466H112.236L169.73 173.915Z" fill="#455A64"/>
<path d="M41 97.3487H47.5098L68.4829 167.144L111.03 179.237L169.73 165.812V173.915L112.236 187.466H109.223L61.1302 173.915L41 97.3487Z" fill="#37474F"/>
<path d="M204.305 211.501C202.785 211.537 163.449 199.353 162.243 197.918C162.113 197.76 162.727 191.916 163.745 187.277C163.789 187.052 149.77 168.624 149.77 168.624L175.114 158.726L187.242 183.921L190.38 190.476C190.38 190.476 203.503 203.717 204.668 205.413C205.834 207.109 205.821 211.465 204.305 211.501Z" fill="#EBEBEB"/>
<path d="M205.413 211.726C203.83 211.766 162.763 199.186 161.498 197.711C161.014 197.157 161.749 194.606 163.74 187.277L190.64 190.53C190.64 190.53 204.538 203.623 205.749 205.377C206.959 207.132 206.991 211.681 205.413 211.726Z" fill="#35A223"/>
<path d="M205.337 209.894C198.504 207.618 170.73 199.097 163.803 197.342C163.749 197.342 163.736 197.364 163.803 197.387C170.528 199.794 198.369 208.108 205.319 209.984C205.435 210.047 205.467 209.944 205.337 209.894Z" fill="#263238"/>
<path d="M203.588 203.096C202.829 202.842 202.025 202.749 201.228 202.822C200.431 202.896 199.657 203.135 198.957 203.524C197.69 204.212 196.736 205.364 196.294 206.741C196.294 206.781 196.361 206.808 196.379 206.768C197.594 204.181 200.768 202.556 203.552 203.168C203.561 203.168 203.569 203.166 203.576 203.162C203.583 203.157 203.589 203.151 203.593 203.143C203.596 203.136 203.598 203.128 203.597 203.119C203.596 203.111 203.593 203.103 203.588 203.096Z" fill="#263238"/>
<path d="M193.447 193.257C190.703 192.357 187.215 192.357 184.812 194.107C184.718 194.174 184.812 194.305 184.91 194.287C187.706 193.759 190.549 193.532 193.393 193.608C193.435 193.607 193.476 193.591 193.508 193.564C193.54 193.536 193.562 193.497 193.568 193.455C193.574 193.413 193.566 193.37 193.544 193.333C193.521 193.297 193.487 193.27 193.447 193.257Z" fill="#263238"/>
<path d="M195.321 194.737C192.577 193.837 189.089 193.837 186.686 195.592C186.592 195.659 186.686 195.79 186.784 195.772C189.58 195.242 192.423 195.014 195.267 195.092C195.313 195.097 195.359 195.084 195.395 195.056C195.431 195.027 195.456 194.986 195.463 194.94C195.47 194.895 195.459 194.848 195.432 194.81C195.406 194.772 195.366 194.746 195.321 194.737Z" fill="#263238"/>
<path d="M197.195 196.222C194.451 195.322 190.963 195.322 188.56 197.076C188.466 197.144 188.56 197.274 188.659 197.256C191.454 196.726 194.297 196.499 197.141 196.577C197.187 196.582 197.233 196.569 197.269 196.54C197.306 196.512 197.33 196.471 197.337 196.425C197.344 196.379 197.333 196.333 197.306 196.295C197.28 196.257 197.24 196.231 197.195 196.222Z" fill="#263238"/>
<path d="M199.06 197.706C196.316 196.806 192.828 196.806 190.425 198.557C190.331 198.624 190.425 198.759 190.524 198.741C193.319 198.211 196.163 197.983 199.006 198.062C199.052 198.066 199.098 198.053 199.134 198.025C199.171 197.997 199.195 197.955 199.202 197.91C199.209 197.864 199.198 197.817 199.171 197.78C199.145 197.742 199.105 197.715 199.06 197.706Z" fill="#263238"/>
<path d="M198.67 186.787C197.63 185.199 195.532 185.797 194.299 186.737C192.225 188.392 190.62 190.564 189.645 193.036C189.623 193.095 189.645 193.131 189.708 193.144C189.708 193.36 189.887 193.594 190.134 193.518C192.51 192.757 195.146 192.24 197.218 190.769C198.428 189.914 199.656 188.29 198.67 186.787ZM193.501 191.628C192.344 192.033 191.17 192.375 190.026 192.82C190.898 191.567 191.831 190.358 192.824 189.198C193.313 188.645 193.839 188.125 194.398 187.642C195.294 186.913 198.684 185.428 198.042 188.542C197.688 190.229 194.886 191.151 193.501 191.628Z" fill="#263238"/>
<path d="M182.472 191.97C184.758 193.077 187.439 193.149 189.91 193.504C190.165 193.54 190.304 193.275 190.268 193.054C190.28 193.051 190.291 193.045 190.301 193.037C190.31 193.029 190.317 193.019 190.321 193.007C190.326 192.996 190.327 192.984 190.326 192.971C190.324 192.959 190.32 192.947 190.313 192.937C188.952 190.666 187.021 188.792 184.714 187.502C183.346 186.778 181.176 186.539 180.41 188.276C179.674 189.927 181.154 191.326 182.472 191.97ZM181.284 189.887C180.141 186.944 183.75 187.84 184.732 188.411C185.357 188.796 185.957 189.223 186.525 189.689C187.695 190.667 188.816 191.703 189.883 192.793C188.681 192.546 187.466 192.402 186.256 192.195C184.853 191.952 181.934 191.511 181.302 189.887H181.284Z" fill="#263238"/>
<path d="M188.524 185.113L160.584 189.257C160.584 189.257 145.341 161.475 139.181 154.564C138.836 154.165 138.459 153.795 138.055 153.457C137.419 153.168 136.735 152.998 136.038 152.953C127.775 151.946 99.9739 154.659 80.7583 153.403L89.725 141.368L93.7017 136.028C115.347 133.553 141.911 124.672 153.895 130.705C166.883 137.251 188.524 185.113 188.524 185.113Z" fill="#263238"/>
<path d="M185.023 180.353C180.275 180.97 181.629 180.727 176.885 181.392C174.563 181.716 162.897 183.323 160.781 183.988C160.769 183.988 160.758 183.993 160.749 184.002C160.741 184.01 160.736 184.022 160.736 184.033C160.736 184.045 160.741 184.057 160.749 184.065C160.758 184.074 160.769 184.078 160.781 184.078C162.996 184.078 174.63 182.238 176.944 181.869C181.674 181.118 180.306 181.284 185.014 180.484C185.023 180.487 185.034 180.488 185.044 180.486C185.054 180.485 185.064 180.481 185.072 180.476C185.081 180.47 185.088 180.462 185.093 180.453C185.098 180.444 185.101 180.434 185.102 180.424C185.102 180.414 185.101 180.404 185.097 180.394C185.093 180.385 185.087 180.376 185.079 180.369C185.072 180.362 185.063 180.357 185.053 180.355C185.043 180.352 185.033 180.351 185.023 180.353Z" fill="#37474F"/>
<path d="M160.727 183.597C157.567 178.293 143.171 152.103 140.306 151.077C137.696 150.137 85.5148 151.226 84.7437 151.23C84.6899 151.23 84.6854 151.316 84.7437 151.316C90.9217 151.239 138.615 151.068 139.978 151.608C142.807 152.728 160.019 183.102 160.445 183.736C160.552 183.903 160.835 183.777 160.727 183.597Z" fill="#37474F"/>
<path d="M66.1289 142.443C66.1289 142.443 64.479 158.258 72.4638 166.086C82.0178 175.485 145.094 173.114 154.845 169.942C164.596 166.77 164.919 150.951 154.24 147.285C144.081 143.798 99.0231 141.791 97.9561 141.364C96.889 140.936 93.7642 135.933 93.7642 135.933L66.1289 142.443Z" fill="#263238"/>
<path d="M79.4714 141.998C79.4714 141.922 79.3413 141.949 79.3413 142.021C79.3426 144.069 78.6234 146.053 77.3104 147.622C75.813 149.359 73.6072 150.321 71.6076 151.343C71.4148 151.442 71.5628 151.743 71.76 151.685C72.9891 151.304 74.1736 150.791 75.2929 150.155C76.3188 149.607 77.2221 148.853 77.947 147.941C78.5982 147.111 79.07 146.154 79.3325 145.131C79.5949 144.107 79.6422 143.041 79.4714 141.998Z" fill="#37474F"/>
<path d="M97.5257 140.378C97.0773 139.807 96.5931 139.263 96.1269 138.709C95.0285 137.391 93.9211 136.073 92.7689 134.804C92.6568 134.682 92.4461 134.853 92.5447 134.984C93.3203 136.005 94.1452 136.991 94.9522 137.985L96.2031 139.51C96.6399 139.965 97.0304 140.462 97.3688 140.995C97.6736 141.562 97.2746 142.043 96.6918 142.106C96.1742 142.118 95.6713 141.933 95.284 141.589C94.3873 140.887 93.6566 139.883 92.9034 139.029C92.455 138.507 91.9753 137.98 91.5046 137.467C91.0338 136.955 90.4689 136.392 89.9712 135.848C89.9399 135.812 89.8771 135.848 89.904 135.897C90.3523 136.5 90.7424 137.125 91.1818 137.728C91.6211 138.331 92.0784 138.925 92.5268 139.528C92.9751 140.131 93.392 140.635 93.8718 141.17C94.2512 141.643 94.7056 142.051 95.2168 142.376C96.0551 142.871 97.5033 142.974 97.9516 141.89C98.0234 141.623 98.0218 141.341 97.9468 141.075C97.8718 140.809 97.7262 140.568 97.5257 140.378Z" fill="#37474F"/>
<path d="M153.509 170.001C150.142 170.064 146.784 170.262 143.417 170.334C140.05 170.406 136.741 170.424 133.401 170.392C126.697 170.329 119.999 170.068 113.307 169.609C106.546 169.159 99.2563 168.462 92.5447 167.531C89.3302 167.081 86.0753 166.712 82.8966 166.028C80.0371 165.484 77.3923 164.131 75.2749 162.127C70.9261 157.893 69.2359 151.671 68.5499 145.728C68.4558 144.927 68.3796 144.131 68.3168 143.33C68.3168 143.276 68.2271 143.276 68.2316 143.33C68.6261 149.426 69.5766 155.783 73.3919 160.683C75.0039 162.822 77.1508 164.495 79.6148 165.533C82.6231 166.743 85.9587 167.027 89.1329 167.459C95.8579 168.358 103.193 169.083 109.971 169.614C116.75 170.145 123.637 170.473 130.478 170.577C137.32 170.68 144.166 170.577 150.999 170.244C151.837 170.203 152.666 170.154 153.5 170.077C153.554 170.077 153.554 170.001 153.509 170.001Z" fill="#37474F"/>
<path d="M162.49 155.248C161.849 152.601 160.241 150.292 157.984 148.778C155.563 147.118 152.667 146.362 149.797 145.944C146.556 145.471 143.27 145.228 140.006 144.913C133.314 144.26 126.615 143.66 119.911 143.114C113.213 142.56 98.7858 141.436 97.9744 141.404C97.9071 141.404 97.8892 141.521 97.9744 141.53C104.439 142.25 110.326 142.88 116.804 143.46C123.283 144.041 129.806 144.675 136.329 145.323C139.569 145.641 142.811 145.968 146.054 146.304C149.053 146.614 152.142 146.92 154.958 148.103C157.374 149.102 159.549 150.708 160.786 153.052C161.93 155.378 162.27 158.021 161.75 160.561C161.298 162.924 160.213 165.119 158.611 166.91C157.074 168.676 155.025 169.915 152.752 170.455C152.16 170.586 151.447 170.676 150.9 170.788C150.86 170.788 150.815 170.882 150.86 170.882C155.702 171.008 160.181 167.459 161.929 163.018C162.903 160.546 163.099 157.835 162.49 155.248Z" fill="#37474F"/>
<path d="M84.9546 103.584C88.1602 116.182 94.5311 131.245 97.1493 133.648C100.467 136.689 120.754 140.68 121.808 140.783C123.565 140.959 127.188 122.787 125.551 122.85C121.211 122.944 107.842 121.581 106.883 120.641C105.923 119.7 99.0951 111.471 92.0876 102.194C87.277 95.81 82.9685 95.765 84.9546 103.584Z" fill="#EB9481"/>
<path d="M120.18 140.032C120.472 140.171 124.664 142.151 127.215 142.83C129.129 143.339 134.684 144.653 135.45 142.592C135.971 141.188 132.796 140.027 130.573 139.159C129.398 138.709 127.936 137.517 128.264 136.761C128.829 135.411 131.85 136.68 133.845 137.778C137.701 139.906 142.861 143.771 145.139 141.782C145.995 141.026 144.946 139.721 143.422 138.448C145.879 139.915 148.492 141.103 149.479 140.302C150.044 139.852 150.057 139.24 149.721 138.556C150.474 138.786 151.133 138.718 151.581 138.219C152.348 137.377 151.936 136.167 151.043 134.934C151.191 134.916 151.332 134.862 151.454 134.777C151.577 134.693 151.677 134.58 151.747 134.448C153.352 131.857 144.839 124.739 141.938 124.127C133.419 122.328 124.475 122.899 124.475 122.899C121.207 125.653 120.153 140.023 120.18 140.032Z" fill="#EB9481"/>
<path d="M132.464 131.893C134.493 132.168 136.44 132.873 138.176 133.963C140.364 135.335 141.83 136.968 143.673 138.606C143.722 138.651 143.673 138.727 143.61 138.682C142.713 137.904 139.095 134.988 138.158 134.332C136.464 133.113 134.515 132.299 132.46 131.951C132.46 131.951 132.446 131.888 132.464 131.893Z" fill="#263238"/>
<path d="M133.962 128.24C136.204 128.798 138.504 129.364 140.602 130.372C142.893 131.475 144.709 133.319 146.498 135.096C147.568 136.164 148.614 137.253 149.636 138.363C149.681 138.412 149.636 138.489 149.573 138.439C147.756 136.61 145.888 134.831 143.969 133.103C142.197 131.502 140.128 130.265 137.881 129.463C136.594 129.014 135.271 128.649 133.953 128.294L133.962 128.24Z" fill="#263238"/>
<path d="M136.267 125.023C138.446 125.419 140.342 125.756 142.292 126.872C144.866 128.357 147.381 130.894 148.264 131.794C149.237 132.788 150.178 133.819 151.102 134.858C151.142 134.898 151.066 134.966 151.03 134.925C148.915 132.645 146.655 130.503 144.265 128.514C143.139 127.551 141.872 126.768 140.508 126.193C139.13 125.687 137.711 125.302 136.267 125.041C136.267 125.041 136.258 125.023 136.267 125.023Z" fill="#263238"/>
<path d="M124.148 121.63L118.051 142.776C118.051 142.776 100.068 138.093 96.719 134.637C93.37 131.182 86.9095 113.087 84.9234 104.286C82.9373 95.486 87.4027 95.603 91.6484 101.078C95.8941 106.554 106.39 119.817 106.968 120.096C107.546 120.375 124.148 121.63 124.148 121.63Z" fill="#35A223"/>
<path d="M116.118 133.486C116.858 130.998 117.62 128.51 118.266 125.99C118.633 124.559 119.01 123.129 119.364 121.693C119.364 121.639 119.288 121.608 119.27 121.662C118.427 124.132 117.589 126.611 116.863 129.122C116.136 131.632 115.392 134.111 114.697 136.622C114.303 138.043 113.953 139.479 113.648 140.927C113.648 140.954 113.688 140.972 113.697 140.927C114.616 138.498 115.37 135.996 116.118 133.486Z" fill="#263238"/>
<path opacity="0.1" d="M115.459 142.061C110.353 140.617 99.2698 137.26 96.7143 134.628C93.3697 131.173 86.9092 113.078 84.9231 104.282C83.9771 100.057 84.5061 97.8796 85.7884 97.3757C85.9285 97.4429 86.0647 97.518 86.1963 97.6006C92.8048 106.702 106.497 128.438 115.459 142.061Z" fill="black"/>
<path d="M64.3135 145.179C64.4121 145.282 102.422 136.923 102.781 136.482C103.274 135.857 96.4769 107.17 89.3305 98.6084C87.5372 96.4668 81.8299 96.6153 79.2744 98.7749C66.6 109.483 63.9548 144.81 64.3135 145.179Z" fill="#35A223"/>
<path d="M76.302 100.827C68.7206 106.675 48.7429 130.341 52.9169 135.951C57.0909 141.562 85.7215 139.699 94.0739 137.301C96.5577 136.581 90.1824 120.717 87.5282 119.934C85.3224 119.277 72.9305 122.656 72.7063 121.932C72.4508 121.118 75.1991 115.876 79.6241 106.288C84.7351 95.2206 79.651 98.244 76.302 100.827Z" fill="#EB9481"/>
<path d="M99.1802 118.067C104.704 118.207 106.102 119.097 110.837 116.717C113.935 115.165 116.253 116.488 114.146 119.417C110.702 124.213 103.533 125.536 100.92 125.266L99.1802 118.067Z" fill="#EB9481"/>
<path d="M83.9771 120.915C83.9771 120.915 90.6034 118.54 96.5035 118.108C100.583 117.811 109.537 118.148 116.495 128.226C118.145 130.615 118.804 135.191 114.701 132.275C111.787 130.201 110.559 128.001 108.644 127.106C108.644 127.106 108.797 133.031 106.349 134.597C104.206 135.965 101.969 137.178 99.6553 138.228C99.368 137.847 99.1045 137.449 98.8662 137.035C98.8662 137.035 96.4407 138.277 92.4326 137.215L83.9771 120.915Z" fill="#EB9481"/>
<path d="M100.426 118.432C102.139 119.727 105.73 122.53 107.869 125.846C110.245 129.526 113.836 137.269 111.106 139.002C109.106 140.27 107.479 137.436 107.479 137.436C107.479 137.436 108.29 140.95 106.232 141.701C104.358 142.385 103.229 140.117 103.229 140.117C103.229 140.117 103.354 142.335 101.435 142.646C99.1129 143.019 99.2294 138.313 96.5484 136.649C95.9431 136.275 100.426 118.432 100.426 118.432Z" fill="#EB9481"/>
<path d="M103.588 127.718C105.004 129.198 107.354 133.387 107.537 137.359C107.537 137.445 107.479 137.499 107.457 137.418C106.552 134.045 105.242 130.796 103.556 127.74L103.588 127.718Z" fill="#263238"/>
<path d="M99.9514 130.233C101.041 131.637 103.274 136.082 103.323 140.09C103.323 140.185 103.256 140.23 103.238 140.149C102.509 136.734 101.394 133.413 99.9155 130.251C99.9155 130.251 99.9379 130.215 99.9514 130.233Z" fill="#263238"/>
<path d="M108.645 127.052C110.321 127.866 111.335 128.919 112.635 130.201C113.278 130.839 113.956 131.439 114.666 132.001C115.316 132.509 116.28 133.274 117.141 132.788C117.62 132.523 117.719 131.888 117.706 131.403C117.608 130.649 117.393 129.916 117.069 129.23C117.069 129.23 117.1 129.185 117.114 129.23C117.433 129.857 117.688 130.516 117.876 131.196C117.993 131.66 117.97 132.149 117.809 132.599C117.387 133.531 116.222 133.468 115.455 133.049C115.002 132.792 114.575 132.491 114.182 132.149C113.796 131.835 113.424 131.502 113.065 131.155C112.321 130.449 111.617 129.702 110.886 128.987C110.167 128.309 109.407 127.678 108.609 127.097C108.582 127.083 108.613 127.038 108.645 127.052Z" fill="#263238"/>
<path d="M111.308 133.877C110.558 131.558 109.659 129.291 108.618 127.088C108.616 127.085 108.615 127.082 108.614 127.079C108.613 127.076 108.613 127.073 108.614 127.07C108.615 127.067 108.616 127.064 108.618 127.061C108.619 127.058 108.622 127.056 108.624 127.054C108.627 127.052 108.63 127.051 108.633 127.051C108.636 127.05 108.639 127.05 108.643 127.051C108.646 127.051 108.649 127.052 108.651 127.054C108.654 127.056 108.656 127.058 108.658 127.061C109.815 128.591 111.447 132.424 111.796 133.621C112.146 134.817 112.478 136.298 112.276 137.521C111.971 139.366 110.693 139.515 110.227 139.528C109.677 139.537 109.14 139.356 108.707 139.015C108.205 138.579 107.797 138.042 107.51 137.44C107.51 137.413 107.533 137.382 107.551 137.413C108.066 138.246 109.008 139.137 110.03 139.173C110.254 139.186 110.479 139.156 110.691 139.083C110.903 139.009 111.099 138.895 111.267 138.745C111.613 138.346 111.804 137.835 111.805 137.305C111.835 136.143 111.667 134.983 111.308 133.877Z" fill="#263238"/>
<path d="M83.9774 120.101L89.7295 140.189C89.7295 140.189 53.939 142.241 51.9574 135.717C49.9757 129.194 67.2635 107.823 74.4368 101.974C82.7489 95.1756 83.1928 98.0281 80.4893 104.831C77.6559 111.953 72.778 122.121 72.778 122.121L83.9774 120.101Z" fill="#35A223"/>
<path d="M61.4709 125.324C63.2579 124.479 65.104 123.767 66.9944 123.192C68.8635 122.631 70.771 122.208 72.7017 121.927C73.8001 121.752 74.9075 121.635 76.0104 121.509C76.0175 121.509 76.0243 121.512 76.0294 121.517C76.0344 121.522 76.0373 121.529 76.0373 121.536C76.0373 121.543 76.0344 121.55 76.0294 121.555C76.0243 121.56 76.0175 121.563 76.0104 121.563C74.0712 121.854 72.1505 122.258 70.2582 122.773C68.3708 123.268 66.5012 123.795 64.6317 124.357C63.5781 124.676 62.5379 125.045 61.4933 125.396C61.4882 125.4 61.4822 125.403 61.4757 125.404C61.4693 125.406 61.4626 125.405 61.4563 125.403C61.45 125.401 61.4443 125.398 61.4397 125.393C61.435 125.389 61.4315 125.383 61.4296 125.377C61.4276 125.37 61.4272 125.364 61.4284 125.357C61.4296 125.351 61.4324 125.345 61.4364 125.34C61.4405 125.334 61.4458 125.33 61.4518 125.328C61.4578 125.325 61.4644 125.324 61.4709 125.324Z" fill="#263238"/>
<path d="M83.8965 120.015C83.7127 120.015 73.7597 121.59 73.4279 121.684C73.4907 121.549 76.0148 116.794 76.3914 116.101C76.4273 116.029 76.4586 115.962 76.499 115.89C76.7232 115.588 76.9473 115.291 77.167 114.99L77.983 113.797L77.1132 114.945C76.9787 115.125 76.8532 115.309 76.7277 115.489C76.9787 115 77.2253 114.505 77.4674 114.004C77.8619 113.208 78.2296 112.407 78.5927 111.597H78.5524C77.8081 112.983 77.0235 114.346 76.2748 115.728C75.5261 117.109 72.6882 122.193 72.7106 122.193C72.733 122.193 83.7127 120.236 83.9189 120.186C83.9415 120.183 83.962 120.171 83.9759 120.153C83.9897 120.135 83.9959 120.112 83.9929 120.09C83.9899 120.067 83.9781 120.046 83.96 120.032C83.9419 120.018 83.9191 120.012 83.8965 120.015Z" fill="#263238"/>
<path d="M82.5291 132.289C81.9014 130.039 81.2872 127.79 80.5789 125.585C80.1754 124.325 79.7763 123.066 79.3594 121.81C79.3594 121.761 79.2608 121.779 79.2742 121.81C79.8167 124.087 80.3637 126.364 81.0093 128.613C81.6549 130.863 82.2736 133.112 82.9461 135.321C83.3271 136.586 83.7486 137.836 84.2059 139.083C84.2059 139.089 84.2082 139.094 84.2124 139.099C84.2166 139.103 84.2224 139.105 84.2283 139.105C84.2342 139.105 84.2399 139.103 84.2441 139.099C84.2484 139.094 84.2507 139.089 84.2507 139.083C83.7844 136.793 83.1613 134.543 82.5291 132.289Z" fill="#263238"/>
<path d="M90.115 140.558C89.864 139.928 89.5636 139.029 89.2856 138.408C89.2139 138.246 89.0928 138.255 89.1466 138.408C89.3215 138.97 89.4425 139.591 89.595 140.167C89.0928 140.167 88.5952 140.189 88.0931 140.212L86.358 140.288C85.2222 140.333 84.0879 140.366 82.9552 140.387C80.6537 140.429 78.3567 140.429 76.0643 140.387C71.4685 140.302 66.8803 139.976 62.3184 139.411C61.0406 139.249 59.7629 139.06 58.4986 138.831C57.242 138.622 55.9969 138.349 54.7684 138.012C54.737 138.012 54.7191 138.061 54.7684 138.07C55.8067 138.477 56.8756 138.801 57.965 139.038C59.1038 139.285 60.256 139.488 61.4082 139.681C63.7082 140.036 66.0216 140.266 68.3395 140.437C72.9394 140.77 77.5468 140.909 82.1616 140.855C83.4528 140.855 84.744 140.81 86.0352 140.77C86.6853 140.747 87.3399 140.725 87.9899 140.689C88.64 140.653 90.1688 140.666 90.115 140.558Z" fill="#263238"/>
<path d="M138.401 143.199H92.6079V145.053H138.401V143.199Z" fill="#455A64"/>
<path d="M117.948 143.199H92.6079V145.053H117.948V143.199Z" fill="#A6A6A6"/>
<path d="M117.176 145.053H157.311L162.983 117.698H122.848L117.176 145.053Z" fill="#A6A6A6"/>
<path d="M118.997 145.053H159.131L164.803 117.698H124.668L118.997 145.053Z" fill="#C7C7C7"/>
<path d="M139.226 131.987C139.178 132.328 139.205 132.675 139.304 133.004C139.403 133.333 139.573 133.636 139.8 133.893C140.028 134.15 140.309 134.354 140.623 134.491C140.937 134.628 141.277 134.695 141.62 134.687C142.354 134.671 143.058 134.389 143.601 133.893C144.144 133.397 144.49 132.72 144.574 131.987C144.622 131.647 144.595 131.3 144.496 130.971C144.396 130.642 144.227 130.339 143.999 130.082C143.771 129.825 143.491 129.621 143.177 129.484C142.863 129.347 142.522 129.28 142.18 129.288C141.446 129.305 140.743 129.587 140.2 130.083C139.657 130.579 139.311 131.256 139.226 131.987Z" fill="#EBEBEB"/>
<path d="M86.4342 107.782C86.4342 107.782 79.7406 101.119 75.3648 101.218L71.6302 104.493C71.6302 104.493 70.4063 104.885 70.0386 104.106C69.142 102.181 68.9716 97.5466 72.9707 94.5727C76.6291 91.8463 82.583 92.1027 87.5416 93.4569C92.3029 94.7572 96.4141 97.9561 94.9256 101.078C93.4372 104.201 86.4342 107.782 86.4342 107.782Z" fill="#35A223"/>
<path opacity="0.1" d="M86.9229 106.32C86.9229 106.32 92.4284 102.446 93.0112 100.12C93.5941 97.7941 88.9762 95.54 85.9858 94.6447C81.3635 93.259 78.2028 93.5334 75.5845 95.9945C72.9662 98.4555 86.9229 106.32 86.9229 106.32Z" fill="black"/>
<path d="M86.9229 106.32C86.9229 106.32 81.5967 97.0697 74.8403 96.1204L75.3649 101.218C75.3649 101.218 79.3999 101.263 86.4342 107.782L86.9229 106.32Z" fill="#35A223"/>
<path d="M73.5264 101.294C74.7572 101.205 75.9928 101.383 77.1489 101.816C78.3085 102.214 79.4187 102.744 80.4576 103.396C81.5043 104.036 82.5078 104.746 83.4614 105.519L84.8647 106.72L86.2097 107.985L86.3622 108.129L86.5325 108.039C87.8003 107.399 89.0226 106.673 90.1909 105.866C90.7799 105.47 91.3443 105.039 91.8812 104.574C92.4234 104.116 92.9203 103.607 93.3651 103.054C92.336 104.009 91.2036 104.847 89.9892 105.551C89.3929 105.915 88.7787 106.257 88.16 106.581C87.5413 106.905 86.9181 107.233 86.2904 107.526L86.6087 107.584L85.2637 106.275C84.8154 105.857 84.3178 105.452 83.8425 105.047C83.3673 104.642 82.8427 104.282 82.3272 103.922C81.8116 103.562 81.2825 103.225 80.7221 102.932C79.6307 102.301 78.4629 101.815 77.2475 101.483C76.9472 101.393 76.6333 101.339 76.3509 101.272C76.0684 101.204 75.7277 101.182 75.4139 101.164C74.7819 101.101 74.1438 101.145 73.5264 101.294Z" fill="#263238"/>
<path d="M71.6304 104.493C73.0057 103.561 74.2602 102.461 75.365 101.218C73.9924 102.154 72.7384 103.254 71.6304 104.493Z" fill="#263238"/>
<path d="M84.1881 104.66C83.7917 106.776 83.5773 108.922 83.547 111.076C83.5111 112.578 84.0895 117.968 85.7528 117.77C87.4161 117.572 84.7082 114.099 84.2329 111.26C83.7577 108.421 84.5154 106.333 84.614 104.633L84.1881 104.66Z" fill="#35A223"/>
<g opacity="0.1">
<path d="M84.1881 104.66C83.7917 106.776 83.5773 108.922 83.547 111.076C83.5111 112.578 84.0895 117.968 85.7528 117.77C87.4161 117.572 84.7082 114.099 84.2329 111.26C83.7577 108.421 84.5154 106.333 84.614 104.633L84.1881 104.66Z" fill="black"/>
</g>
<path d="M90.115 104.957C90.6499 107.014 91.0631 109.1 91.3524 111.206C91.5318 112.556 91.5676 117.469 90.0478 117.464C88.5279 117.46 90.6127 114.049 90.7517 111.44C90.8906 108.83 89.994 106.491 89.7295 104.979L90.115 104.957Z" fill="#35A223"/>
<g opacity="0.1">
<path d="M90.115 104.957C90.6499 107.014 91.0631 109.1 91.3524 111.206C91.5318 112.556 91.5676 117.469 90.0478 117.464C88.5279 117.46 90.6127 114.049 90.7517 111.44C90.8906 108.83 89.994 106.491 89.7295 104.979L90.115 104.957Z" fill="black"/>
</g>
<path d="M87.4834 105.285C85.7484 105.168 82.5114 101.533 81.4085 98.6444C81.3368 98.4465 81.8568 96.5433 82.4352 94.1993C82.7625 92.7731 83.0987 91.1804 83.296 89.7002L92.2178 93.2095C91.4411 94.9821 90.884 96.8437 90.559 98.7524C90.5391 98.9574 90.5391 99.1638 90.559 99.3688C90.559 99.3958 90.559 99.4318 90.559 99.4723C90.5635 100.669 90.2048 105.461 87.4834 105.285Z" fill="#EB9481"/>
<path d="M90.5365 99.3733C90.5392 99.4077 90.5392 99.4424 90.5365 99.4768C90.2151 99.4746 89.8943 99.4475 89.5771 99.3958C84.3495 98.559 83.937 91.9722 83.937 89.9476L92.2177 93.2005C91.4444 94.9803 90.8889 96.8475 90.5634 98.7614C90.5389 98.9644 90.5299 99.169 90.5365 99.3733Z" fill="#263238"/>
<path d="M85.1115 78.1734C83.242 81.0888 82.3229 90.771 83.9997 93.4704C86.4341 97.3802 91.7155 99.1888 95.3515 95.954C98.8754 92.8046 99.8348 80.1755 97.8577 77.593C94.9166 73.7688 87.8733 73.8587 85.1115 78.1734Z" fill="#EB9481"/>
<path d="M91.1326 85.219C91.4182 85.1751 91.7011 85.115 91.98 85.0391C92.287 85.015 92.5779 84.8919 92.8094 84.6881C92.8697 84.6095 92.9025 84.513 92.9025 84.4137C92.9025 84.3144 92.8697 84.2179 92.8094 84.1392C92.6659 84.0048 92.4896 83.9108 92.2984 83.8665C92.1071 83.8223 91.9076 83.8295 91.7199 83.8873C91.3176 83.9449 90.9521 84.154 90.6977 84.4722C90.644 84.5464 90.613 84.6347 90.6085 84.7263C90.604 84.8179 90.6261 84.9089 90.6722 84.9881C90.7183 85.0673 90.7864 85.1313 90.8682 85.1723C90.9499 85.2133 91.0418 85.2295 91.1326 85.219Z" fill="#263238"/>
<path d="M97.6737 86.1189C97.4008 86.0249 97.1329 85.9168 96.8712 85.7949C96.5721 85.7214 96.3057 85.5505 96.1135 85.309C96.0678 85.2212 96.0522 85.1206 96.0692 85.023C96.0862 84.9254 96.1349 84.8361 96.2077 84.7691C96.3712 84.6599 96.5607 84.5961 96.7568 84.5843C96.9529 84.5724 97.1486 84.6129 97.324 84.7016C97.7041 84.8317 98.0232 85.0976 98.2207 85.4485C98.2605 85.5305 98.276 85.6222 98.2655 85.7127C98.2549 85.8033 98.2187 85.8889 98.1611 85.9595C98.1036 86.03 98.0271 86.0825 97.9407 86.1108C97.8543 86.139 97.7616 86.1418 97.6737 86.1189Z" fill="#263238"/>
<path d="M90.6353 92.836C90.7698 93.007 90.8998 93.2365 91.1329 93.286C91.3744 93.3135 91.619 93.2889 91.8502 93.214C91.8502 93.214 91.8861 93.214 91.8502 93.25C91.7405 93.3641 91.6027 93.447 91.4508 93.4905C91.2988 93.5339 91.1381 93.5363 90.985 93.4974C90.8555 93.4475 90.7438 93.3601 90.664 93.2464C90.5842 93.1326 90.5398 92.9976 90.5366 92.8585C90.5635 92.8181 90.6128 92.8091 90.6353 92.836Z" fill="#263238"/>
<path d="M91.563 90.9779C91.6958 91.2547 91.8836 91.5013 92.1149 91.7025C92.3462 91.9037 92.6161 92.0552 92.908 92.1477C93.1629 92.2326 93.4287 92.2795 93.6971 92.2872H93.9975C94.0326 92.2835 94.0657 92.2689 94.0922 92.2456C94.1187 92.2222 94.1373 92.1911 94.1455 92.1567C94.1477 92.1342 94.1477 92.1116 94.1455 92.0892V92.0307C94.2217 91.5313 94.271 90.7665 94.271 90.7665C94.4414 90.8789 95.3156 91.4188 95.3335 91.1534C95.4815 88.9758 95.6429 86.5508 95.3335 84.3462C95.3335 84.2742 95.217 84.2787 95.2125 84.3462C94.9928 86.4338 95.1363 88.5484 94.948 90.645C94.6369 90.4466 94.2986 90.295 93.9437 90.1951C93.872 90.1951 93.8764 91.6798 93.8271 91.9002C92.9753 91.9002 92.3745 91.5673 91.6348 90.8969C91.5855 90.8834 91.5317 90.9194 91.563 90.9779Z" fill="#263238"/>
<path d="M93.4371 91.9947C93.1177 92.3179 92.7209 92.5534 92.2849 92.6786C92.0448 92.736 91.7931 92.7188 91.5631 92.6291C91.0654 92.4267 91.1147 91.9497 91.2582 91.5538C91.339 91.3449 91.4428 91.1458 91.5675 90.9599C92.0651 91.4957 92.7201 91.8582 93.4371 91.9947Z" fill="#263238"/>
<path d="M92.2849 92.6786C92.0448 92.736 91.7931 92.7188 91.5631 92.6291C91.0654 92.4266 91.1147 91.9497 91.2582 91.5538C91.5306 91.5977 91.7802 91.7327 91.9666 91.9369C92.153 92.141 92.2651 92.4024 92.2849 92.6786Z" fill="#FF9ABB"/>
<path d="M92.4061 86.9917C92.4061 86.9917 92.3523 87.0142 92.3478 87.0412C92.2671 87.6891 92.0654 88.3909 91.4512 88.5349V88.5709C92.173 88.5844 92.433 87.6216 92.4061 86.9917Z" fill="#263238"/>
<path d="M91.9397 86.2313C90.9219 85.9884 90.5139 88.031 91.4554 88.2739C92.397 88.5169 92.8049 86.4338 91.9397 86.2313Z" fill="#263238"/>
<path d="M96.154 87.4866C96.154 87.4866 96.1988 87.5271 96.1944 87.5541C96.0419 88.1839 95.9747 88.9353 96.5037 89.2682V89.3042C95.8088 89.0568 95.9119 88.0715 96.154 87.4866Z" fill="#263238"/>
<path d="M96.8626 86.9377C97.8983 87.0727 97.5531 89.1468 96.5936 89.0208C95.6342 88.8948 95.9929 86.8252 96.8626 86.9377Z" fill="#263238"/>
<path d="M86.0304 84.3957C87.3754 82.731 87.4203 79.1632 88.6711 78.6548C91.3611 77.557 94.2843 82.6095 97.1491 83.6713C99.9243 84.7016 101.502 83.2484 101.816 80.8009C102.13 78.3534 100.767 76.1308 97.8126 74.5291C94.7595 72.8689 91.3432 73.1029 89.3705 73.5483C89.3705 73.5483 90.4824 72.6755 90.3479 72.2255C90.2134 71.7756 88.4559 72.374 87.8731 72.6755C87.4214 72.9674 87.0264 73.3394 86.7074 73.7732C86.3302 73.5169 85.9179 73.3169 85.4835 73.1794C84.8488 72.999 84.1711 73.0484 83.5691 73.3188C83.457 73.4673 84.4209 73.9667 85.1203 74.2591C85.1203 74.2591 83.1566 75.5414 82.641 77.0621C82.1255 78.5828 81.8744 86.6003 82.4079 86.8837C83.0938 87.2526 85.4924 85.0706 86.0304 84.3957Z" fill="#455A64"/>
<path d="M85.4611 74.1872C85.488 74.1872 85.5104 74.2277 85.4611 74.2412C84.5713 74.5465 83.7841 75.095 83.188 75.8248C82.534 76.7362 82.1346 77.8064 82.0313 78.9247C81.7578 81.0663 82.0717 83.2169 82.251 85.3495C82.251 85.4125 82.1479 85.426 82.1389 85.3495C81.8072 83.0999 81.5157 80.6839 81.9013 78.4253C82.2465 76.5132 83.4167 74.5741 85.4611 74.1872Z" fill="#455A64"/>
<path d="M88.8281 77.8854C89.7097 78.0867 90.545 78.4547 91.2894 78.9697C91.963 79.5107 92.5656 80.135 93.0828 80.8279C94.3516 82.2676 95.8445 83.5633 97.7096 84.1167C97.7096 84.1167 97.7096 84.1617 97.7096 84.1527C95.9611 83.7568 94.513 82.6635 93.298 81.3858C92.7403 80.6818 92.1415 80.0118 91.5046 79.3791C90.6861 78.787 89.7778 78.3313 88.8146 78.0294C88.802 78.0214 88.7918 78.0101 88.7852 77.9967C88.7786 77.9832 88.7758 77.9682 88.7772 77.9533C88.7786 77.9383 88.7841 77.9241 88.7931 77.9121C88.8021 77.9002 88.8142 77.8909 88.8281 77.8854Z" fill="#455A64"/>
<path d="M91.375 73.3818C92.7052 73.2303 94.05 73.2681 95.3697 73.4943C96.644 73.6754 97.8773 74.0773 99.0146 74.6821C100.951 75.7664 102.373 77.773 102.086 80.081C101.957 81.2681 101.391 82.3641 100.499 83.1539C100.487 83.1647 100.471 83.1702 100.455 83.1694C100.439 83.1685 100.424 83.1614 100.413 83.1494C100.403 83.1375 100.397 83.1218 100.398 83.1058C100.399 83.0897 100.406 83.0747 100.418 83.0639C101.18 82.3193 101.681 81.3475 101.848 80.2934C102.014 79.2394 101.836 78.1596 101.341 77.2151C100.185 75.1275 97.8534 74.1512 95.6207 73.7237C94.2197 73.4765 92.7967 73.377 91.375 73.4268V73.3818Z" fill="#455A64"/>
<path d="M90.1151 90.1951C89.5737 90.0434 89.0856 89.7424 88.7063 89.3262C88.327 88.91 88.0716 88.3954 87.9692 87.8408C87.8668 87.2862 87.9215 86.7139 88.1272 86.1889C88.3328 85.664 88.681 85.2075 89.1323 84.8713C89.5836 84.5351 90.1198 84.3327 90.68 84.2871C91.2403 84.2415 91.802 84.3546 92.3013 84.6135C92.8007 84.8723 93.2177 85.2666 93.5049 85.7514C93.7921 86.2362 93.9379 86.7922 93.9259 87.3561C93.9172 87.752 93.8308 88.1423 93.6717 88.5047C93.5127 88.8671 93.284 89.1944 92.9988 89.4681C92.7136 89.7418 92.3775 89.9564 92.0096 90.0996C91.6417 90.2429 91.2493 90.312 90.8548 90.3031C90.6046 90.2993 90.356 90.263 90.1151 90.1951ZM91.617 84.7691C91.4083 84.7097 91.1928 84.678 90.9759 84.6746C90.3133 84.6606 89.6703 84.9006 89.1778 85.3456C88.6853 85.7907 88.3804 86.4074 88.3252 87.0702C88.2699 87.7329 88.4685 88.3919 88.8804 88.9129C89.2924 89.4339 89.8867 89.7777 90.5425 89.8743C91.1982 89.9709 91.8659 89.8131 92.4097 89.433C92.9536 89.0529 93.3325 88.479 93.4695 87.8283C93.6065 87.1776 93.4911 86.4989 93.1469 85.9305C92.8028 85.3622 92.2557 84.9469 91.617 84.7691Z" fill="#37474F"/>
<path d="M96.9386 91.2209C95.8313 90.9104 95.1453 89.4887 95.3829 87.9365C95.4846 87.1902 95.817 86.4946 96.3334 85.9479C96.5409 85.7009 96.8082 85.5117 97.1097 85.3986C97.4112 85.2854 97.7367 85.2521 98.0547 85.3018C98.3728 85.3515 98.6727 85.4826 98.9256 85.6825C99.1785 85.8823 99.3759 86.1442 99.4986 86.4428C99.8251 87.1203 99.9317 87.8834 99.8035 88.6249C99.5479 90.2716 98.3509 91.4503 97.1135 91.2614C97.0544 91.2518 96.996 91.2383 96.9386 91.2209ZM98.1447 85.7319L97.9922 85.6959C97.7369 85.6689 97.4788 85.7034 97.2395 85.7965C97.0001 85.8896 96.7863 86.0387 96.6158 86.2313C96.1626 86.7189 95.8699 87.3347 95.7775 87.995C95.5578 89.4212 96.1899 90.6945 97.1942 90.8609C98.1985 91.0274 99.1848 89.9881 99.409 88.5619C99.5224 87.9051 99.4299 87.2291 99.1444 86.6273C99.0483 86.4174 98.9098 86.2299 98.7377 86.0766C98.5656 85.9233 98.3636 85.8074 98.1447 85.7364V85.7319Z" fill="#37474F"/>
<path d="M93.7731 87.6846L93.5669 87.3381C94.0735 87.0277 95.1943 86.6813 95.8086 87.5721L95.4768 87.8015C94.9253 87.0007 93.818 87.6576 93.7731 87.6846Z" fill="#37474F"/>
<path d="M80.4175 86.3843L80.0947 86.1458C80.2023 85.9929 81.2021 84.6611 82.1077 84.6566C83.0134 84.6521 88.2051 86.0064 88.4293 86.0424L88.3306 86.4338C86.8242 86.0514 82.7668 85.057 82.1122 85.0615C81.4577 85.066 80.7 86.0154 80.4175 86.3843Z" fill="#37474F"/>
<path d="M84.9547 86.2178C84.9547 86.2178 83.6501 82.677 82.1033 83.0685C80.5566 83.4599 80.9915 88.211 82.4261 89.2233C82.6011 89.3653 82.803 89.4703 83.0195 89.532C83.236 89.5937 83.4628 89.6108 83.686 89.5822C83.9093 89.5536 84.1245 89.4799 84.3186 89.3657C84.5128 89.2514 84.6819 89.0989 84.8158 88.9173L84.9547 86.2178Z" fill="#EB9481"/>
<path d="M82.2603 84.4272V84.4677C83.2556 85.2145 83.5694 86.4023 83.6994 87.5856C83.6676 87.4545 83.6069 87.3323 83.5217 87.2279C83.4365 87.1236 83.329 87.0398 83.2072 86.9828C83.0853 86.9258 82.9523 86.8969 82.8179 86.8985C82.6835 86.9 82.5511 86.9319 82.4306 86.9917C82.3948 86.9917 82.4306 87.0592 82.4306 87.0592C82.6429 87.0476 82.8535 87.1024 83.0333 87.216C83.2132 87.3296 83.3535 87.4965 83.4349 87.6936C83.5699 88.0235 83.6677 88.3676 83.7263 88.7194C83.7532 88.8363 83.946 88.8273 83.937 88.7194V88.6924C84.3316 87.2571 83.7487 84.9716 82.2603 84.4272Z" fill="#263238"/>
</g>
<defs>
<clipPath id="clip0_493_2546">
<rect width="187" height="181" fill="white" transform="translate(41 31)"/>
</clipPath>
</defs>
</svg>
