<svg width="19" height="19" viewBox="0 0 19 19" fill="none" xmlns="http://www.w3.org/2000/svg">
<mask id="mask0_476_1155" style="mask-type:alpha" maskUnits="userSpaceOnUse" x="0" y="0" width="19" height="19">
<rect width="19" height="19" fill="#D9D9D9"/>
</mask>
<g mask="url(#mask0_476_1155)">
<path d="M7.67321 17.0208L7.37177 14.6093C7.15964 14.5382 6.94218 14.4388 6.71939 14.3109C6.4966 14.183 6.29742 14.046 6.12182 13.8998L3.88841 14.8437L2.06152 11.6771L3.99349 10.2171C3.97521 10.0993 3.96227 9.9811 3.95466 9.86235C3.94704 9.7436 3.94324 9.62536 3.94324 9.50762C3.94324 9.39495 3.94704 9.28051 3.95466 9.1643C3.96227 9.04808 3.97521 8.92096 3.99349 8.78293L2.06152 7.32292L3.88841 4.17151L6.1142 5.10781C6.30502 4.95658 6.50878 4.81829 6.72547 4.69294C6.94217 4.56758 7.15507 4.46684 7.36415 4.39072L7.67321 1.97919H11.327L11.6284 4.39834C11.8659 4.48461 12.0809 4.58534 12.2732 4.70054C12.4655 4.81574 12.6597 4.9515 12.8555 5.10781L15.1118 4.17151L16.9387 7.32292L14.9763 8.80575C15.0047 8.93364 15.0202 9.05316 15.0227 9.1643C15.0252 9.27543 15.0265 9.38733 15.0265 9.5C15.0265 9.60759 15.024 9.71695 15.0189 9.82809C15.0138 9.93922 14.9956 10.0664 14.9641 10.2095L16.9113 11.6771L15.0844 14.8437L12.8555 13.8922C12.6597 14.0485 12.4597 14.1868 12.2557 14.3071C12.0517 14.4273 11.8426 14.5255 11.6284 14.6017L11.327 17.0208H7.67321ZM8.70844 15.8333H10.2644L10.5491 13.7126C10.953 13.607 11.3222 13.4571 11.6566 13.2627C11.991 13.0683 12.3136 12.8184 12.6241 12.5129L14.5911 13.3396L15.3706 11.9938L13.6533 10.6997C13.7193 10.4947 13.7642 10.2937 13.788 10.0968C13.8119 9.8999 13.8238 9.70097 13.8238 9.5C13.8238 9.29397 13.8119 9.09504 13.788 8.9032C13.7642 8.71138 13.7193 8.5155 13.6533 8.31555L15.3858 7.00625L14.6064 5.66042L12.6165 6.49929C12.3516 6.21611 12.0342 5.96592 11.6642 5.74873C11.2943 5.53152 10.92 5.37775 10.5414 5.28742L10.2918 3.16667H8.72061L8.45876 5.2798C8.0548 5.37521 7.6818 5.52137 7.33976 5.71827C6.99772 5.91517 6.67142 6.16891 6.36085 6.4795L4.39385 5.66042L3.61436 7.00625L5.32406 8.28054C5.25809 8.4683 5.21191 8.66367 5.18552 8.86667C5.15913 9.06966 5.14594 9.28332 5.14594 9.50762C5.14594 9.71365 5.15913 9.91563 5.18552 10.1135C5.21191 10.3115 5.25555 10.5068 5.31644 10.6997L3.61436 11.9938L4.39385 13.3396L6.35323 12.5083C6.65365 12.8169 6.97488 13.0696 7.31692 13.2665C7.65896 13.4634 8.03704 13.6146 8.45114 13.7202L8.70844 15.8333ZM9.50923 11.875C10.1679 11.875 10.7284 11.6438 11.1907 11.1815C11.6531 10.7192 11.8842 10.1587 11.8842 9.5C11.8842 8.84131 11.6531 8.2808 11.1907 7.81848C10.7284 7.35617 10.1679 7.12502 9.50923 7.12502C8.84242 7.12502 8.27989 7.35617 7.82163 7.81848C7.36339 8.2808 7.13427 8.84131 7.13427 9.5C7.13427 10.1587 7.36339 10.7192 7.82163 11.1815C8.27989 11.6438 8.84242 11.875 9.50923 11.875Z" fill="#708296"/>
</g>
</svg>
