<svg width="19" height="19" viewBox="0 0 19 19" fill="none" xmlns="http://www.w3.org/2000/svg">
<mask id="mask0_476_1103" style="mask-type:alpha" maskUnits="userSpaceOnUse" x="0" y="0" width="19" height="19">
<rect width="19" height="19" fill="#D9D9D9"/>
</mask>
<g mask="url(#mask0_476_1103)">
<path d="M2.77075 8.70832V2.77084H8.70823V8.70832H2.77075ZM3.95823 7.52084H7.52075V3.95832H3.95823V7.52084ZM2.77075 16.2291V10.2917H8.70823V16.2291H2.77075ZM3.95823 15.0417H7.52075V11.4791H3.95823V15.0417ZM10.2916 8.70832V2.77084H16.229V8.70832H10.2916ZM11.479 7.52084H15.0416V3.95832H11.479V7.52084ZM14.7447 16.2291V14.7448H16.229V16.2291H14.7447ZM10.2916 11.776V10.2917H11.7759V11.776H10.2916ZM11.7759 13.2604V11.776H13.2603V13.2604H11.7759ZM10.2916 14.7448V13.2604H11.7759V14.7448H10.2916ZM11.7759 16.2291V14.7448H13.2603V16.2291H11.7759ZM13.2603 14.7448V13.2604H14.7447V14.7448H13.2603ZM13.2603 11.776V10.2917H14.7447V11.776H13.2603ZM14.7447 13.2604V11.776H16.229V13.2604H14.7447Z" fill="#708296"/>
</g>
</svg>
