<svg width="19" height="19" viewBox="0 0 19 19" fill="none" xmlns="http://www.w3.org/2000/svg">
<mask id="mask0_476_276" style="mask-type:alpha" maskUnits="userSpaceOnUse" x="0" y="0" width="19" height="19">
<rect width="19" height="19" fill="#D9D9D9"/>
</mask>
<g mask="url(#mask0_476_276)">
<path d="M0.395752 14.0825V13.1173C0.395752 12.5906 0.670803 12.1579 1.22091 11.8194C1.77101 11.481 2.48807 11.3117 3.37208 11.3117C3.51824 11.3117 3.66541 11.3163 3.81359 11.3254C3.96178 11.3346 4.11098 11.3523 4.26118 11.3787C4.10691 11.6253 3.99248 11.8814 3.91788 12.1468C3.84329 12.4122 3.80599 12.6844 3.80599 12.9635V14.0825H0.395752ZM5.14573 14.0825V12.994C5.14573 12.6234 5.24977 12.2846 5.45785 11.9776C5.66591 11.6707 5.96583 11.4031 6.3576 11.1747C6.74937 10.9463 7.21218 10.7751 7.74604 10.6609C8.2799 10.5467 8.8635 10.4896 9.49683 10.4896C10.1423 10.4896 10.732 10.5467 11.2659 10.6609C11.7998 10.7751 12.2626 10.9463 12.6544 11.1747C13.0461 11.4031 13.344 11.6707 13.548 11.9776C13.752 12.2846 13.854 12.6234 13.854 12.994V14.0825H5.14573ZM15.1938 14.0825V12.9658C15.1938 12.668 15.1585 12.3874 15.088 12.124C15.0174 11.8606 14.9116 11.6121 14.7705 11.3787C14.9258 11.3523 15.0743 11.3346 15.2159 11.3254C15.3574 11.3163 15.4972 11.3117 15.6353 11.3117C16.5193 11.3117 17.2351 11.4789 17.7827 11.8133C18.3302 12.1478 18.604 12.5824 18.604 13.1173V14.0825H15.1938ZM6.39411 12.895H12.6178V12.8113C12.5366 12.4916 12.1997 12.2226 11.6069 12.0044C11.0142 11.7862 10.3119 11.6771 9.49988 11.6771C8.68791 11.6771 7.98555 11.7862 7.39282 12.0044C6.80008 12.2226 6.46718 12.4916 6.39411 12.8113V12.895ZM3.37006 10.5429C2.9969 10.5429 2.67812 10.4102 2.41373 10.1449C2.14934 9.87953 2.01714 9.56055 2.01714 9.18794C2.01714 8.81038 2.14981 8.49143 2.41516 8.23109C2.6805 7.97076 2.99947 7.84059 3.37208 7.84059C3.74964 7.84059 4.06986 7.97076 4.33273 8.23109C4.5956 8.49143 4.72704 8.81114 4.72704 9.1902C4.72704 9.55813 4.597 9.87556 4.33691 10.1425C4.07682 10.4094 3.75454 10.5429 3.37006 10.5429ZM15.6353 10.5429C15.2658 10.5429 14.9477 10.4094 14.6807 10.1425C14.4138 9.87556 14.2803 9.55813 14.2803 9.1902C14.2803 8.81114 14.4138 8.49143 14.6807 8.23109C14.9477 7.97076 15.2663 7.84059 15.6368 7.84059C16.0184 7.84059 16.3394 7.97076 16.5997 8.23109C16.8601 8.49143 16.9902 8.81038 16.9902 9.18794C16.9902 9.56055 16.8604 9.87953 16.6007 10.1449C16.341 10.4102 16.0192 10.5429 15.6353 10.5429ZM9.50257 9.89585C8.93241 9.89585 8.44688 9.69603 8.04596 9.2964C7.64506 8.89677 7.44461 8.4115 7.44461 7.84059C7.44461 7.25826 7.64443 6.77014 8.04406 6.37622C8.4437 5.9823 8.92897 5.78534 9.49988 5.78534C10.0822 5.78534 10.5703 5.98204 10.9643 6.37545C11.3582 6.76885 11.5551 7.25634 11.5551 7.83791C11.5551 8.40807 11.3584 8.8936 10.965 9.2945C10.5716 9.6954 10.0841 9.89585 9.50257 9.89585ZM9.50368 8.70839C9.74576 8.70839 9.95028 8.62364 10.1172 8.45415C10.2842 8.28464 10.3677 8.07885 10.3677 7.83678C10.3677 7.59472 10.2845 7.39021 10.1182 7.22324C9.95186 7.05628 9.74576 6.9728 9.49988 6.9728C9.26035 6.9728 9.05583 7.05596 8.88634 7.22229C8.71684 7.38862 8.63209 7.59472 8.63209 7.84059C8.63209 8.08012 8.71684 8.28464 8.88634 8.45415C9.05583 8.62364 9.26161 8.70839 9.50368 8.70839Z" fill="#708296"/>
</g>
</svg>
