<svg width="19" height="19" viewBox="0 0 19 19" fill="none" xmlns="http://www.w3.org/2000/svg">
<mask id="mask0_476_190" style="mask-type:alpha" maskUnits="userSpaceOnUse" x="0" y="0" width="19" height="19">
<rect width="19" height="19" fill="#708296"/>
</mask>
<g mask="url(#mask0_476_190)">
<path d="M4.20185 16.2291C3.80195 16.2291 3.46346 16.0906 3.18638 15.8135C2.90929 15.5364 2.77075 15.1979 2.77075 14.798V4.20194C2.77075 3.80204 2.90929 3.46355 3.18638 3.18647C3.46346 2.90939 3.80195 2.77084 4.20185 2.77084H9.50752V3.95832H4.20185C4.14094 3.95832 4.08511 3.9837 4.03435 4.03444C3.9836 4.0852 3.95823 4.14103 3.95823 4.20194V14.798C3.95823 14.8589 3.9836 14.9148 4.03435 14.9655C4.08511 15.0163 4.14094 15.0417 4.20185 15.0417H9.50752V16.2291H4.20185ZM12.8493 12.8798L12.0272 12.0211L13.9546 10.0937H7.20102V8.90626H13.9546L12.0272 6.97885L12.8493 6.12023L16.229 9.49999L12.8493 12.8798Z" fill="#FF6666"/>
</g>
</svg>
