<svg width="19" height="19" viewBox="0 0 19 19" fill="none" xmlns="http://www.w3.org/2000/svg">
<mask id="mask0_476_218" style="mask-type:alpha" maskUnits="userSpaceOnUse" x="0" y="0" width="19" height="19">
<rect width="19" height="19" fill="#708296"/>
</mask>
<g mask="url(#mask0_476_218)">
<path d="M12.2707 15.4923L9.1802 12.4018L10.0145 11.5675L12.2707 13.8237L16.7589 9.33559L17.5931 10.1699L12.2707 15.4923ZM16.229 7.91667H15.0416V4.20195C15.0416 4.14105 15.0162 4.08521 14.9654 4.03445C14.9147 3.98371 14.8589 3.95833 14.7979 3.95833H13.0624V6.02882H5.93742V3.95833H4.20185C4.14094 3.95833 4.08511 3.98371 4.03435 4.03445C3.9836 4.08521 3.95823 4.14105 3.95823 4.20195V14.7981C3.95823 14.859 3.9836 14.9148 4.03435 14.9655C4.08511 15.0163 4.14094 15.0417 4.20185 15.0417H8.70823V16.2291H4.20185C3.80703 16.2291 3.46981 16.0893 3.1902 15.8097C2.91057 15.5301 2.77075 15.1929 2.77075 14.7981V4.20195C2.77075 3.80713 2.91057 3.46992 3.1902 3.1903C3.46981 2.91067 3.80703 2.77085 4.20185 2.77085H7.68975C7.79937 2.38518 8.02342 2.06548 8.3619 1.81175C8.70037 1.55801 9.07971 1.43114 9.4999 1.43114C9.93632 1.43114 10.3217 1.55801 10.6562 1.81175C10.9906 2.06548 11.2126 2.38518 11.3222 2.77085H14.7979C15.1928 2.77085 15.53 2.91067 15.8096 3.1903C16.0892 3.46992 16.229 3.80713 16.229 4.20195V7.91667ZM9.4999 4.04969C9.7039 4.04969 9.87415 3.98144 10.0107 3.84493C10.1472 3.70842 10.2154 3.53816 10.2154 3.33414C10.2154 3.13015 10.1472 2.95989 10.0107 2.82338C9.87415 2.68687 9.7039 2.61862 9.4999 2.61862C9.2959 2.61862 9.12564 2.68687 8.98913 2.82338C8.85261 2.95989 8.78435 3.13015 8.78435 3.33414C8.78435 3.53816 8.85261 3.70842 8.98913 3.84493C9.12564 3.98144 9.2959 4.04969 9.4999 4.04969Z" fill="#708296"/>
</g>
</svg>
