<svg width="19" height="19" viewBox="0 0 19 19" fill="none" xmlns="http://www.w3.org/2000/svg">
<mask id="mask0_476_620" style="mask-type:alpha" maskUnits="userSpaceOnUse" x="0" y="0" width="19" height="19">
<rect width="19" height="19" fill="#708296"/>
</mask>
<g mask="url(#mask0_476_620)">
<path d="M9.89575 16.7315L9.77397 14.6458H9.10406C7.34211 14.6458 5.84607 14.0307 4.61595 12.8006C3.38582 11.5705 2.77075 10.0745 2.77075 8.3125C2.77075 6.55054 3.38582 5.0545 4.61595 3.82438C5.84607 2.59425 7.34211 1.97919 9.10406 1.97919C9.98504 1.97919 10.8084 2.14387 11.5742 2.47323C12.34 2.80257 13.0106 3.25498 13.5861 3.83046C14.1616 4.40595 14.614 5.07658 14.9433 5.84236C15.2727 6.60814 15.4374 7.43152 15.4374 8.3125C15.4374 9.21073 15.2973 10.0732 15.0172 10.8999C14.7371 11.7265 14.3521 12.4999 13.8624 13.22C13.3727 13.9401 12.7889 14.5978 12.1109 15.1931C11.4329 15.7884 10.6945 16.3012 9.89575 16.7315ZM11.0832 14.5271C12.02 13.7354 12.782 12.8085 13.3692 11.7464C13.9563 10.6842 14.2499 9.53958 14.2499 8.3125C14.2499 6.87431 13.7518 5.65712 12.7556 4.66094C11.7594 3.66476 10.5423 3.16667 9.10406 3.16667C7.66587 3.16667 6.44868 3.66476 5.4525 4.66094C4.45632 5.65712 3.95823 6.87431 3.95823 8.3125C3.95823 9.7507 4.45632 10.9679 5.4525 11.9641C6.44868 12.9602 7.66587 13.4583 9.10406 13.4583H11.0832V14.5271ZM9.10711 12.487C9.30097 12.487 9.46564 12.4193 9.60113 12.2838C9.73663 12.1483 9.80437 11.9836 9.80437 11.7897C9.80437 11.5959 9.73663 11.4312 9.60113 11.2957C9.46564 11.1602 9.30097 11.0925 9.10711 11.0925C8.91326 11.0925 8.74859 11.1602 8.61309 11.2957C8.4776 11.4312 8.40985 11.5959 8.40985 11.7897C8.40985 11.9836 8.4776 12.1483 8.61309 12.2838C8.74859 12.4193 8.91326 12.487 9.10711 12.487ZM8.64735 10.0724H9.59124C9.60138 9.71212 9.65239 9.44518 9.74425 9.27163C9.83609 9.09807 10.0855 8.80779 10.4925 8.40079C10.7249 8.16837 10.914 7.92377 11.0596 7.667C11.2053 7.41021 11.2781 7.12602 11.2781 6.81443C11.2781 6.19226 11.0657 5.71548 10.641 5.38411C10.2162 5.05273 9.70897 4.88704 9.11929 4.88704C8.58441 4.88704 8.13301 5.03471 7.7651 5.33005C7.39717 5.62541 7.13404 5.98116 6.97571 6.39728L7.85567 6.74134C7.94193 6.51195 8.0825 6.29475 8.27739 6.08974C8.47226 5.88472 8.75289 5.78222 9.11929 5.78222C9.52121 5.78222 9.82012 5.89259 10.016 6.11333C10.2119 6.33409 10.3099 6.57591 10.3099 6.83879C10.3099 7.08339 10.2426 7.29602 10.1081 7.47668C9.97364 7.65735 9.80643 7.84766 9.60648 8.04761C9.18527 8.41299 8.92011 8.72001 8.81101 8.96867C8.7019 9.21734 8.64735 9.58526 8.64735 10.0724Z" fill="#708296"/>
</g>
</svg>
